<svg width="49" height="52" viewBox="0 0 49 52" fill="none" xmlns="http://www.w3.org/2000/svg">
<path d="M24.6808 34.4388L23.3599 35.7628L29.3844 41.8184L30.7053 40.4944L24.6808 34.4388Z" fill="black"/>
<path d="M39.7227 37.4966C39.4714 37.6527 39.2201 37.8089 38.9628 37.953C38.9448 37.965 38.9269 37.971 38.909 37.9831C38.8013 38.0431 38.6936 38.1032 38.5859 38.1572C38.5619 38.1692 38.532 38.1873 38.5021 38.1993C38.3944 38.2533 38.2867 38.3134 38.179 38.3674C38.1611 38.3794 38.1431 38.3854 38.1192 38.3974C37.8859 38.5175 37.6465 38.6317 37.4132 38.7398C37.6705 40.115 37.6824 41.4542 37.4431 42.7094C37.5927 42.5833 37.7423 42.4452 37.8858 42.307C39.1543 41.0339 39.8603 39.3043 39.938 37.3525C39.8662 37.3945 39.8004 37.4426 39.7286 37.4846C39.7286 37.4846 39.7227 37.4846 39.7167 37.4906L39.7227 37.4966Z" fill="black"/>
<path d="M24.8427 32.428L32.6805 40.3012L33.9968 38.98L26.159 31.1068L24.8427 32.428Z" fill="black"/>
<path d="M11.6499 38.2653C12.6671 38.2653 13.6244 37.863 14.3483 37.1363C15.0783 36.4036 15.4791 35.4367 15.4791 34.4098C15.4791 33.3828 15.0783 32.416 14.3483 31.6833C13.6184 30.9566 12.6551 30.5542 11.638 30.5542H7.95837C7.86862 30.5723 7.77887 30.5723 7.69511 30.5542C6.46858 30.5422 5.31983 30.0558 4.44629 29.179C3.56678 28.2962 3.07616 27.1191 3.07616 25.8699C3.07616 24.6208 3.56079 23.4557 4.44629 22.5669C5.33179 21.6781 6.4985 21.1916 7.737 21.1916H30.8557C32.9976 19.1318 35.5225 17.5763 38.2209 16.6094C38.0773 15.8527 37.7123 15.1561 37.1619 14.6036C36.4379 13.8709 35.4687 13.4685 34.4515 13.4685H16.6219C15.3714 13.4685 14.2047 12.9821 13.3252 12.0993C12.4457 11.2105 11.9551 10.0394 11.9551 8.79023C11.9551 7.54108 12.4397 6.376 13.3192 5.48719C14.1987 4.60437 15.3654 4.11795 16.6099 4.11795H32.3156C29.0368 2.03403 25.2316 0.916992 21.2528 0.916992C15.7065 0.916992 10.4892 3.08498 6.57029 7.0246C2.65136 10.9642 0.491455 16.207 0.491455 21.7742C0.491455 27.3413 2.65136 32.5841 6.57029 36.5297C7.19253 37.1543 7.85066 37.7369 8.5447 38.2714H11.5901C11.5901 38.2714 11.638 38.2714 11.6619 38.2714L11.6499 38.2653ZM9.69945 13.8349C11.1055 13.8349 12.2482 14.9819 12.2482 16.3932C12.2482 17.8045 11.1055 18.9516 9.69945 18.9516C8.29342 18.9516 7.15065 17.8045 7.15065 16.3932C7.15065 14.9819 8.29342 13.8349 9.69945 13.8349ZM9.4661 36.9081C8.06008 36.9081 6.9173 35.761 6.9173 34.3497C6.9173 32.9384 8.06008 31.7914 9.4661 31.7914C10.8721 31.7914 12.0149 32.9384 12.0149 34.3497C12.0149 35.761 10.8721 36.9081 9.4661 36.9081Z" fill="black"/>
<path d="M24.2204 27.3773C24.9085 27.3773 25.6025 27.4434 26.3026 27.5755C26.4641 27.2152 26.6436 26.8608 26.8291 26.5125C26.841 26.4885 26.859 26.4585 26.871 26.4345C26.9487 26.2843 27.0325 26.1342 27.1163 25.9901C27.1402 25.948 27.1582 25.912 27.1821 25.8699C27.2659 25.7258 27.3496 25.5817 27.4394 25.4376C27.4633 25.4015 27.4872 25.3595 27.5111 25.3234C27.571 25.2334 27.6248 25.1373 27.6847 25.0472C25.7222 25.1253 24.023 25.8339 22.7546 27.1071C22.611 27.2512 22.4794 27.4013 22.3477 27.5515C22.952 27.4374 23.5743 27.3833 24.2204 27.3833V27.3773Z" fill="black"/>
<path d="M9.46613 33.2988C8.89176 33.2988 8.42508 33.7672 8.42508 34.3437C8.42508 34.9203 8.89176 35.3887 9.46613 35.3887C10.0405 35.3887 10.5072 34.9203 10.5072 34.3437C10.5072 33.7672 10.0405 33.2988 9.46613 33.2988Z" fill="black"/>
<path d="M46.2921 7.73326L46.687 9.03048L47.0819 7.73326C47.1537 7.49304 47.3451 7.30689 47.5844 7.22882L48.8768 6.82642L47.5844 6.43008C47.3451 6.35801 47.1596 6.17182 47.0819 5.92559L46.687 4.62842L46.2921 5.92559C46.2203 6.16582 46.0288 6.352 45.7955 6.43008L44.5031 6.82642L45.7955 7.22882C46.0348 7.30089 46.2203 7.49304 46.2921 7.73326Z" fill="black"/>
<path d="M14.3124 6.48409C13.6962 7.10266 13.3611 7.91942 13.3611 8.78422C13.3611 9.64901 13.7022 10.4658 14.3124 11.0904C14.9227 11.7089 15.7364 12.0452 16.604 12.0452H34.4456C35.8456 12.0452 37.1679 12.5977 38.1611 13.5946C38.8731 14.3093 39.3577 15.2041 39.5791 16.171C40.0996 16.0269 40.6261 15.9008 41.1586 15.7987C41.1107 15.6365 41.0569 15.4744 41.009 15.3122C40.9971 15.2822 40.9911 15.2522 40.9791 15.2222C40.9612 15.1681 40.9372 15.108 40.9193 15.054C39.9022 12.0392 38.197 9.2827 35.9354 7.00661C35.8157 6.88049 35.69 6.76035 35.5644 6.64024C35.5046 6.58019 35.4447 6.52616 35.3849 6.47211C35.3131 6.40004 35.2353 6.33396 35.1576 6.26189C35.1276 6.23186 35.0917 6.20186 35.0618 6.17784C34.8105 5.94963 34.5533 5.73341 34.29 5.51721H16.6159C15.7544 5.51721 14.9407 5.85954 14.3244 6.47211L14.3124 6.48409Z" fill="black"/>
<path d="M41.3022 22.1405C40.8953 22.1405 40.5124 22.3027 40.2252 22.5909C39.6269 23.1915 39.6269 24.1584 40.2252 24.7589C40.5124 25.0472 40.8953 25.2094 41.3022 25.2094C41.709 25.2094 42.092 25.0532 42.3792 24.7589C42.9715 24.1584 42.9715 23.1855 42.3792 22.5909C42.092 22.3027 41.709 22.1405 41.3022 22.1405Z" fill="black"/>
<path d="M9.69947 17.4382C10.2739 17.4382 10.7405 16.9698 10.7405 16.3932C10.7405 15.8167 10.2739 15.3483 9.69947 15.3483C9.1251 15.3483 8.6584 15.8167 8.6584 16.3932C8.6584 16.9698 9.1251 17.4382 9.69947 17.4382Z" fill="black"/>
<path d="M44.6049 16.9938C39.8722 16.9938 35.1276 19.0297 31.5916 22.5789C30.8258 23.3476 30.1258 24.1764 29.5035 25.0532C29.4975 25.0652 29.4916 25.0712 29.4796 25.0832C29.3839 25.2214 29.2881 25.3595 29.1924 25.5036C29.1864 25.5156 29.1804 25.5216 29.1685 25.5336C29.0727 25.6718 28.983 25.8159 28.8932 25.9601C28.8873 25.9721 28.8813 25.9841 28.8753 25.9901C28.7855 26.1342 28.6958 26.2783 28.612 26.4225C28.612 26.4345 28.6001 26.4405 28.5941 26.4525C28.5103 26.5966 28.4266 26.7408 28.3428 26.8909C28.3368 26.9029 28.3308 26.9149 28.3248 26.9209C28.2471 27.0651 28.1633 27.2152 28.0855 27.3653C28.0855 27.3773 28.0736 27.3893 28.0676 27.4014C27.9898 27.5515 27.918 27.6956 27.8462 27.8458C27.8402 27.8578 27.8342 27.8758 27.8283 27.8878C27.7565 28.0319 27.6906 28.1821 27.6248 28.3322C27.6188 28.3502 27.6069 28.3683 27.6009 28.3923C27.3915 28.8667 27.2 29.3471 27.0265 29.8336L35.1755 38.0191C35.5464 37.887 35.9174 37.7429 36.2764 37.5928C36.6114 37.4486 36.9465 37.2985 37.2756 37.1303C37.2756 37.1303 37.2815 37.1303 37.2875 37.1303C38.2987 36.6258 39.2739 36.0313 40.2013 35.3407C40.2013 35.3407 40.2073 35.3407 40.2133 35.3347C45.8254 31.1488 48.9606 24.0443 47.6682 17.2881C46.669 17.0959 45.6399 16.9998 44.6049 16.9998V16.9938ZM37.9457 28.122L33.7755 32.3139C33.6259 32.464 33.4344 32.5361 33.2429 32.5361C33.0515 32.5361 32.86 32.464 32.7105 32.3139C32.4173 32.0196 32.4173 31.5392 32.7105 31.2449L36.8807 27.053C37.1739 26.7588 37.6525 26.7588 37.9457 27.053C38.2388 27.3473 38.2388 27.8278 37.9457 28.122ZM43.4501 25.8339C42.8757 26.4105 42.1159 26.7287 41.3022 26.7287C40.4885 26.7287 39.7286 26.4105 39.1543 25.8339C37.9696 24.6448 37.9696 22.7111 39.1543 21.528C39.7286 20.9514 40.4885 20.6332 41.3022 20.6332C42.1159 20.6332 42.8757 20.9514 43.4501 21.528C44.6348 22.7171 44.6348 24.6508 43.4501 25.8339Z" fill="black"/>
<path d="M14.2466 43.0878C13.9535 43.382 13.9535 43.8625 14.2466 44.1568C14.3962 44.3069 14.5877 44.379 14.7791 44.379C14.9706 44.379 15.168 44.3069 15.3116 44.1568L20.5708 38.8719C20.8639 38.5776 20.8639 38.0972 20.5708 37.8029C20.4272 37.6588 20.2477 37.5867 20.0622 37.5807C20.2596 37.5807 20.4631 37.6468 20.6186 37.8029C20.9118 38.0972 20.9118 38.5776 20.6186 38.8719L17.2621 42.247C18.4049 42.4692 19.5656 42.5953 20.7323 42.6254C20.9058 42.6254 21.0733 42.6313 21.2409 42.6313C23.2811 42.6313 25.2855 42.3371 27.218 41.7546L21.7614 36.2715C21.4682 35.9772 21.4682 35.4968 21.7614 35.2025L23.6102 33.3408L23.2392 32.9685C22.946 32.6742 22.946 32.1937 23.2392 31.8995L25.5008 29.6234C25.5666 29.4192 25.6385 29.215 25.7162 29.0168C25.2136 28.9388 24.7111 28.8967 24.2205 28.8967C23.0478 28.8967 21.9529 29.1189 20.9656 29.5573C20.8699 29.5994 20.7622 29.6234 20.6605 29.6234C20.4631 29.6234 20.2716 29.5453 20.128 29.4012C19.9066 29.179 19.8468 28.8427 19.9725 28.5604C20.3913 27.6115 20.9716 26.7648 21.6896 26.0381C23.305 24.4166 25.5607 23.5218 28.0556 23.5218C28.283 23.5218 28.5163 23.5278 28.7437 23.5458C28.989 23.2275 29.2463 22.9152 29.5095 22.6089H7.73104C6.86947 22.6089 6.05576 22.9512 5.4395 23.5698C4.82324 24.1884 4.48819 25.0051 4.48819 25.8699C4.48819 26.7347 4.82922 27.5575 5.4395 28.1761C6.05576 28.7946 6.86947 29.1369 7.73104 29.1369C7.76095 29.1369 7.79087 29.1369 7.82677 29.1369C7.85668 29.1369 7.8866 29.1369 7.91651 29.1369H11.638C13.038 29.1369 14.3543 29.6835 15.3475 30.6804C16.3467 31.6833 16.8912 33.0045 16.8912 34.4098C16.8912 35.8151 16.3407 37.1423 15.3475 38.1392C14.3782 39.1181 13.0919 39.6646 11.7218 39.6826C11.6978 39.6826 11.6679 39.6826 11.644 39.6826H10.6089C12.1406 40.6015 13.7859 41.3222 15.5031 41.8206L14.2466 43.0878Z" fill="black"/>
<path d="M20.2118 42.9076C19.9186 42.6133 19.44 42.6133 19.1468 42.9076L13.8876 48.1924C13.5945 48.4867 13.5945 48.9672 13.8876 49.2614C14.0372 49.4116 14.2287 49.4836 14.4201 49.4836C14.6116 49.4836 14.809 49.4116 14.9526 49.2614L20.2118 43.9766C20.5049 43.6823 20.5049 43.2019 20.2118 42.9076Z" fill="black"/>
<path d="M24.382 43.0878C24.0888 42.7935 23.6102 42.7935 23.317 43.0878L18.0579 48.3726C17.7647 48.6669 17.7647 49.1474 18.0579 49.4416C18.2075 49.5918 18.3989 49.6638 18.5904 49.6638C18.7818 49.6638 18.9793 49.5918 19.1229 49.4416L24.388 44.1568C24.6812 43.8625 24.6812 43.382 24.388 43.0878H24.382Z" fill="black"/>
<path d="M26.2188 44.5471L20.9597 49.832C20.6665 50.1263 20.6665 50.6067 20.9597 50.901C21.1092 51.0511 21.3007 51.1232 21.4922 51.1232C21.6836 51.1232 21.8811 51.0511 22.0246 50.901L27.2838 45.6161C27.577 45.3218 27.577 44.8414 27.2838 44.5471C26.9906 44.2528 26.512 44.2528 26.2188 44.5471Z" fill="black"/>
</svg>
