<svg width="41" height="41" viewBox="0 0 41 41" fill="none" xmlns="http://www.w3.org/2000/svg">
<path d="M26.7334 26.2437C26.096 26.2437 25.5986 26.7328 25.5986 27.3616C25.5986 27.9904 26.096 28.4795 26.7334 28.4795C27.3709 28.4795 27.8683 27.9904 27.8683 27.3616C27.8683 26.7328 27.3709 26.2437 26.7334 26.2437Z" fill="black"/>
<path d="M21.9841 20.0255C21.3466 20.0255 20.8493 20.5146 20.8493 21.1434C20.8493 21.7722 21.3466 22.2613 21.9841 22.2613C22.6215 22.2613 23.1189 21.7722 23.1189 21.1434C23.1189 20.5146 22.6215 20.0255 21.9841 20.0255Z" fill="black"/>
<path d="M22.7686 37.2129C20.9964 37.2129 19.5113 38.5404 19.2942 40.2172C21.5638 40.3569 23.8264 39.9377 25.8858 39.0294C25.2484 37.9116 24.1136 37.2129 22.7686 37.2129Z" fill="black"/>
<path d="M31.1255 21.9119C31.1255 23.7983 32.6876 25.4053 34.67 25.4053C34.5999 23.0996 33.9625 20.8639 32.8978 18.9076C31.833 19.5364 31.1255 20.6543 31.1255 21.9119Z" fill="black"/>
<path d="M16.4572 27.0123C15.3925 27.0123 14.5449 27.8507 14.5449 28.8987C14.5449 29.9467 15.3925 30.7851 16.4572 30.7851C17.522 30.7851 18.3696 29.9467 18.3696 28.8987C18.3696 27.9205 17.522 27.0123 16.4572 27.0123Z" fill="black"/>
<path d="M9.30525 22.2612C11.2176 22.2612 12.8497 20.7242 12.8497 18.7679C12.8497 17.0911 11.6449 15.6937 10.0127 15.3444C8.45061 16.8116 7.17574 18.6281 6.39819 20.7242C7.03564 21.7023 8.1004 22.2612 9.30525 22.2612Z" fill="black"/>
<path d="M7.17575 8.77686C8.38059 8.77686 9.3753 7.79871 9.3753 6.61096C9.3753 5.42321 8.38059 4.44507 7.17575 4.44507C5.9709 4.44507 4.9762 5.42321 4.9762 6.61096C4.9762 7.79871 5.89385 8.77686 7.17575 8.77686Z" fill="black"/>
<path d="M30.2779 21.9119C30.2779 20.3748 31.1255 18.9076 32.4774 18.1391C30.9153 15.6238 28.5827 13.6675 25.7457 12.5497V14.6457C25.7457 15.1348 25.3184 15.554 24.8281 15.554C24.3377 15.554 23.9034 15.1348 23.9034 14.6457V11.9209C19.4413 10.6632 14.4818 11.6414 10.7202 14.7156C12.4224 15.3444 13.6272 16.9513 13.6272 18.7679C13.6272 21.1434 11.6448 23.0997 9.23515 23.0997C7.96026 23.0997 6.82549 22.6106 5.97789 21.7023C5.69069 23.0298 5.48053 24.4271 5.48053 25.8245C5.48053 33.2305 11.1475 39.3089 18.4466 40.1473C18.7268 37.9814 20.5761 36.3046 22.8387 36.3046C24.4708 36.3046 26.0259 37.2129 26.7334 38.6801C31.3426 36.3745 34.6 31.6934 34.7401 26.2437C32.3304 26.3136 30.2779 24.3573 30.2779 21.9119ZM10.6502 28.6891C10.5101 29.1781 10.0127 29.3877 9.51536 29.248C9.01802 29.1083 8.80787 28.6192 8.94797 28.1301C9.08807 27.6411 9.58541 27.4314 10.0828 27.5712C10.5801 27.7808 10.7903 28.2699 10.6502 28.6891ZM16.4642 31.7632C14.9021 31.7632 13.6272 30.5056 13.6272 28.9685C13.6272 27.4314 14.9021 26.1738 16.4642 26.1738C18.0263 26.1738 19.3012 27.4314 19.3012 28.9685C19.2312 30.5056 18.0263 31.7632 16.4642 31.7632ZM21.2836 32.1824C21.1435 32.6715 20.6462 32.8811 20.1488 32.7414C19.6515 32.6016 19.4413 32.1126 19.5814 31.6235C19.7215 31.1344 20.2189 30.9248 20.7162 31.0646C21.2136 31.2742 21.4237 31.7632 21.2836 32.1824ZM21.9911 23.1695C20.8563 23.1695 19.9387 22.2613 19.9387 21.1434C19.9387 20.0255 20.8633 19.1172 21.9911 19.1172C23.1189 19.1172 24.0435 20.0255 24.0435 21.1434C24.0435 22.2613 23.1259 23.1695 21.9911 23.1695ZM26.7404 29.3877C25.6056 29.3877 24.688 28.4795 24.688 27.3616C24.688 26.2437 25.6056 25.3354 26.7404 25.3354C27.8752 25.3354 28.7928 26.2437 28.7928 27.3616C28.7928 28.4795 27.8682 29.3877 26.7404 29.3877Z" fill="black"/>
<path d="M29.1431 10.0344H35.4475L32.9678 6.96026C32.8277 6.82053 32.8277 6.54106 32.9678 6.40132L35.4475 3.32715H30.6982V8.21788C30.6982 8.42748 30.4881 8.63708 30.2709 8.63708H29.2061V10.0344H29.1361H29.1431Z" fill="black"/>
<path d="M3.63125 36.7238C2.92375 36.7238 2.28632 37.2828 2.28632 38.0513C2.28632 38.75 2.8537 39.3788 3.63125 39.3788C4.33874 39.3788 4.97618 38.8198 4.97618 38.0513C4.90613 37.3526 4.33874 36.7238 3.63125 36.7238Z" fill="black"/>
<path d="M38.5717 16.6718C38.5717 16.1828 38.1444 15.7635 37.6471 15.7635C37.1497 15.7635 36.7224 16.1828 36.7224 16.6718C36.7224 17.1609 37.1497 17.5801 37.6471 17.5801C38.2145 17.5102 38.5717 17.1609 38.5717 16.6718Z" fill="black"/>
<path d="M39.4894 3.11755C40.0007 3.11755 40.414 3.52278 40.414 4.02583C40.414 4.52888 40.0007 4.93411 39.4894 4.93411C38.978 4.93411 38.5717 4.52888 38.5717 4.02583C38.5717 3.52278 38.985 3.11755 39.4894 3.11755Z" fill="black"/>
<path d="M39.0621 24.0778C39.5735 24.0778 39.9797 24.4831 39.9797 24.9861C39.9797 25.4891 39.5665 25.8944 39.0621 25.8944C38.5578 25.8944 38.1375 25.4891 38.1375 24.9861C38.1375 24.4831 38.5507 24.0778 39.0621 24.0778Z" fill="black"/>
<path d="M35.5176 37.1431C36.029 37.1431 36.4423 37.5483 36.4423 38.0513C36.4423 38.5544 36.029 38.9596 35.5176 38.9596C35.0063 38.9596 34.6 38.5544 34.6 38.0513C34.6 37.5483 35.0133 37.1431 35.5176 37.1431Z" fill="black"/>
<path d="M0.941377 29.3179C1.45274 29.3179 1.86599 29.7231 1.86599 30.2261C1.86599 30.7292 1.45274 31.1344 0.941377 31.1344C0.430018 31.1344 0.0167236 30.7292 0.0167236 30.2261C0.0167236 29.7231 0.430018 29.3179 0.941377 29.3179Z" fill="black"/>
<path d="M2.71359 12.6894C3.22495 12.6894 3.63124 13.0946 3.63124 13.5977C3.63124 14.1007 3.21795 14.5059 2.71359 14.5059C2.20924 14.5059 1.78894 14.1007 1.78894 13.5977C1.78894 13.0946 2.20224 12.6894 2.71359 12.6894Z" fill="black"/>
<path d="M16.037 4.86426C16.5483 4.86426 16.9616 5.26949 16.9616 5.77254C16.9616 6.27558 16.5483 6.68081 16.037 6.68081C15.5256 6.68081 15.1123 6.27558 15.1123 5.77254C15.1123 5.26949 15.5256 4.86426 16.037 4.86426Z" fill="black"/>
<path d="M29.7806 1.7901H25.7387V7.72884H29.7806V1.7901Z" fill="black"/>
<path d="M24.8911 15.0649C25.1013 15.0649 25.3184 14.8553 25.3184 14.6457V1.37087C25.3184 1.16126 25.1083 0.95166 24.8911 0.95166C24.674 0.95166 24.4638 1.16126 24.4638 1.37087V14.6457C24.3938 14.9252 24.6039 15.0649 24.8911 15.0649Z" fill="black"/>
</svg>
