<svg width="38" height="38" viewBox="0 0 38 38" fill="none" xmlns="http://www.w3.org/2000/svg">
<path d="M19 3.16667C10.2696 3.16667 3.16669 10.2696 3.16669 19C3.16669 27.7304 10.2696 34.8333 19 34.8333C27.7305 34.8333 34.8334 27.7304 34.8334 19C34.8334 10.2696 27.7305 3.16667 19 3.16667ZM19 5.54167C26.4469 5.54167 32.4584 11.5531 32.4584 19C32.4584 25.0684 28.4659 30.1803 22.9584 31.8661V27.8166C22.9584 26.3044 22.087 25.0077 20.8277 24.3623C22.0521 24.1281 23.1891 23.6635 24.1442 23.0073C25.0993 22.3511 25.8451 21.5221 26.3195 20.5892C26.7939 19.6562 26.9833 18.6462 26.8721 17.6429C26.7608 16.6397 26.352 15.6721 25.6797 14.8206C26.0308 13.7397 26.4231 11.8439 25.4911 10.352C23.6941 10.352 22.5345 11.5837 21.9811 12.3497C21.0351 12.0389 20.0227 11.8777 19 11.875C17.9767 11.8759 16.9632 12.0355 16.0158 12.3451C15.4611 11.5787 14.3025 10.352 12.509 10.352C11.4394 12.0641 12.1006 13.9053 12.4549 14.6567C11.7371 15.5046 11.287 16.479 11.1432 17.4966C10.9994 18.5141 11.1662 19.5444 11.6293 20.4991C12.0923 21.4538 12.8378 22.3044 13.8019 22.978C14.766 23.6517 15.9199 24.1283 17.1647 24.3669C16.1306 24.8999 15.3562 25.867 15.119 27.0404H14.0784C13.0516 27.0404 12.6526 26.6231 12.0977 25.9194C11.5498 25.2156 10.9608 24.7426 10.253 24.5463C9.87145 24.5059 9.61438 24.7962 9.94688 25.0535C11.0703 25.8182 11.1478 27.0699 11.5982 27.8892C12.0083 28.6271 12.8485 29.2917 13.7985 29.2917H15.0417V31.8661C9.53411 30.1803 5.54169 25.0684 5.54169 19C5.54169 11.5531 11.5531 5.54167 19 5.54167Z" fill="black"/>
</svg>
