<svg width="41" height="37" viewBox="0 0 41 37" fill="none" xmlns="http://www.w3.org/2000/svg">
<path d="M5.16261 18.0258C4.66526 18.0258 4.16791 18.3053 3.95777 18.7944C3.74762 19.3533 3.88772 20.052 4.38507 20.4013C4.59521 20.5411 4.88241 20.6109 5.16261 20.6109C5.65996 20.6109 6.15731 20.3315 6.36746 19.8424C6.50756 19.4931 6.50756 19.1437 6.36746 18.8642C6.22736 18.3752 5.73001 18.0258 5.16261 18.0258Z" fill="black"/>
<path d="M18.2058 18.7944C18.7031 18.7944 19.1234 18.3752 19.1234 17.8861C19.1234 17.397 18.6961 16.9778 18.2058 16.9778C17.7154 16.9778 17.2881 17.397 17.2881 17.8861C17.2881 18.3752 17.7154 18.7944 18.2058 18.7944Z" fill="black"/>
<path d="M25.2877 16.2791C23.5155 16.4189 21.5331 17.1176 19.9009 17.7464V17.956C19.9009 18.9341 19.1234 19.7027 18.1287 19.7027C17.7014 19.7027 17.2811 19.5629 16.9239 19.2834C14.8714 20.541 14.304 21.5192 14.4441 21.8685C14.5142 22.0781 15.0816 22.3576 16.5666 22.2179C17.9816 22.0781 19.7538 21.5891 21.5261 20.8904C23.2983 20.1917 24.9305 19.2834 26.0583 18.3752C27.2631 17.397 27.4032 16.8381 27.3331 16.6285C27.4032 16.4189 26.8358 16.1394 25.2807 16.2791H25.2877Z" fill="black"/>
<path d="M5.37976 7.47584C6.58461 7.47584 7.5793 6.49767 7.5793 5.30992C7.5793 4.12217 6.58461 3.14404 5.37976 3.14404C4.17492 3.14404 3.18022 4.12217 3.18022 5.30992C3.18022 6.49767 4.10487 7.47584 5.37976 7.47584Z" fill="black"/>
<path d="M36.7688 29.2745C35.7741 29.2745 34.9965 30.0431 34.9965 31.0212C34.9965 31.9994 35.7741 32.7679 36.7688 32.7679C37.7635 32.7679 38.541 31.9994 38.541 31.0212C38.541 30.0431 37.7635 29.2745 36.7688 29.2745Z" fill="black"/>
<path d="M3.11018 34.5146C2.61284 34.5146 2.18553 34.9338 2.18553 35.4229C2.18553 35.9119 2.61284 36.3311 3.11018 36.3311C3.60753 36.3311 4.02783 35.9119 4.02783 35.4229C4.02783 34.9338 3.60053 34.5146 3.11018 34.5146Z" fill="black"/>
<path d="M36.9859 12.4364C37.126 12.0172 37.4132 11.7378 37.7635 11.4583C36.5586 9.78148 34.0088 8.73344 30.5344 8.59371C26.7097 8.3841 22.1005 9.29241 17.6383 11.109C13.3163 12.8557 9.49165 15.301 6.8648 17.956C7.36215 18.5848 7.50225 19.4232 7.22205 20.1917C6.8648 21.0302 6.0172 21.5192 5.16961 21.5192C4.88941 21.5192 4.60221 21.4493 4.32202 21.3795C3.40438 23.1261 3.18722 24.803 3.75462 26.1305C4.60222 28.2265 7.22906 29.554 11.0537 29.7636C14.9485 30.043 19.6978 29.1348 24.3771 27.2484C28.1317 25.7113 31.466 23.6851 34.0859 21.4494C36.3555 19.4232 37.9106 17.2573 38.4079 15.301C37.133 14.9517 36.4956 13.6242 36.9929 12.4364H36.9859ZM31.8163 19.6328C27.7044 23.755 19.6978 26.9689 13.8207 26.9689C10.7035 26.9689 8.65106 26.0606 8.01361 24.4536C6.66867 21.3096 11.3409 16.4888 18.6401 13.5543C21.9674 12.2268 25.3718 11.4583 28.2088 11.4583C31.3259 11.4583 33.3784 12.3666 34.0158 13.9735C34.7233 15.5805 33.8757 17.5367 31.8163 19.6328Z" fill="black"/>
<path d="M40.2432 13.7639C40.6005 12.9255 39.963 11.9473 39.0384 11.9473C38.8983 11.9473 38.7582 11.9474 38.541 12.0172H38.471C38.471 12.0172 37.9736 12.157 37.7635 12.7159C37.4062 13.5543 37.9736 14.4626 38.8983 14.5324C39.1084 14.6023 40.0331 14.3228 40.2432 13.7639Z" fill="black"/>
<path d="M28.1948 12.3666C25.5049 12.3666 22.2406 13.0652 18.9833 14.3927C12.3917 17.0477 7.71941 21.5192 8.77715 24.1742C9.2745 25.4318 11.1168 26.1305 13.8067 26.1305C19.4736 26.1305 27.2001 22.9864 31.1648 19.0738C33.0071 17.2573 33.7146 15.5805 33.2173 14.3229C32.7199 13.0652 30.8776 12.3666 28.1877 12.3666H28.1948ZM16.7838 23.0563C15.719 23.1262 14.0939 23.1262 13.7366 22.148C13.1692 20.8205 15.2987 19.2835 16.5736 18.5149C16.1463 17.397 17.0009 16.2093 18.2758 16.2093C18.8432 16.2093 19.4106 16.4887 19.6908 16.9778C19.8309 16.908 19.9009 16.9079 20.048 16.8381C23.6626 15.3709 27.6974 14.7421 28.3419 16.349C29.2595 18.6547 21.5401 22.5672 16.7908 23.0563H16.7838Z" fill="black"/>
<path d="M30.7446 28.0867C25.8551 31.3705 17.7785 34.0953 11.2569 34.0953C11.0467 34.0953 10.8296 34.305 10.8296 34.5146C10.8296 34.7242 11.0397 34.9337 11.2569 34.9337C15.719 34.9337 20.0411 33.746 22.878 32.7679C25.0776 31.9993 28.4049 30.6718 31.2419 28.7155C31.452 28.5758 31.5221 28.2963 31.382 28.0867C31.2419 27.947 30.9547 27.947 30.7446 28.0867Z" fill="black"/>
<path d="M10.052 10.8993C14.9415 7.54567 23.0181 4.89072 29.5397 4.89072C31.6622 4.89072 33.7216 5.1702 35.5639 5.72914C35.7741 5.79901 36.0613 5.65926 36.1313 5.44965C36.2014 5.24005 36.0613 4.96059 35.8511 4.89072C33.9388 4.33178 31.8093 3.98245 29.5467 3.98245C22.885 3.98245 14.5982 6.77713 9.56169 10.2006C9.35155 10.3404 9.2815 10.6199 9.4216 10.8295C9.5617 10.9692 9.8489 11.039 10.059 10.8993H10.052Z" fill="black"/>
<path d="M12.4617 0.908264C12.9731 0.908264 13.3794 1.31349 13.3794 1.81653C13.3794 2.31958 12.9661 2.72485 12.4617 2.72485C11.9574 2.72485 11.5441 2.31958 11.5441 1.81653C11.5441 1.31349 11.9574 0.908264 12.4617 0.908264Z" fill="black"/>
<path d="M38.1137 0C38.6251 0 39.0314 0.405223 39.0314 0.90827C39.0314 1.41132 38.6181 1.81654 38.1137 1.81654C37.6094 1.81654 37.1961 1.41132 37.1961 0.90827C37.1961 0.405223 37.6094 0 38.1137 0Z" fill="black"/>
<path d="M39.886 22.707C40.3973 22.707 40.8036 23.1122 40.8036 23.6152C40.8036 24.1183 40.3903 24.5235 39.886 24.5235C39.3816 24.5235 38.9683 24.1183 38.9683 23.6152C38.9683 23.1122 39.3816 22.707 39.886 22.707Z" fill="black"/>
<path d="M30.1772 33.1871C30.6885 33.1871 31.1018 33.5923 31.1018 34.0953C31.1018 34.5984 30.6885 35.0036 30.1772 35.0036C29.6658 35.0036 29.2595 34.5984 29.2595 34.0953C29.2595 33.5923 29.6728 33.1871 30.1772 33.1871Z" fill="black"/>
<path d="M0.917642 29.6937C1.429 29.6937 1.83528 30.0989 1.83528 30.602C1.83528 31.105 1.422 31.5102 0.917642 31.5102C0.413288 31.5102 0 31.105 0 30.602C0 30.0989 0.413288 29.6937 0.917642 29.6937Z" fill="black"/>
<path d="M2.68288 11.3884C3.19424 11.3884 3.60052 11.7936 3.60052 12.2967C3.60052 12.7997 3.18723 13.205 2.68288 13.205C2.17853 13.205 1.76523 12.7997 1.76523 12.2967C1.76523 11.7936 2.17853 11.3884 2.68288 11.3884Z" fill="black"/>
<path d="M33.7216 25.3619C34.233 25.3619 34.6393 25.7671 34.6393 26.2702C34.6393 26.7732 34.226 27.1785 33.7216 27.1785C33.2173 27.1785 32.804 26.7732 32.804 26.2702C32.804 25.7671 33.2173 25.3619 33.7216 25.3619Z" fill="black"/>
</svg>
