<svg width="71" height="71" viewBox="0 0 71 71" fill="none" xmlns="http://www.w3.org/2000/svg">
<path d="M35.5 41.8234C38.9923 41.8234 41.8234 38.9923 41.8234 35.5C41.8234 32.0077 38.9923 29.1766 35.5 29.1766C32.0077 29.1766 29.1766 32.0077 29.1766 35.5C29.1766 38.9923 32.0077 41.8234 35.5 41.8234Z" fill="#61DAFB"/>
<path d="M59.518 25.0719C58.2977 24.6281 57.0219 24.1844 55.6906 23.7961C56.0234 22.4648 56.3008 21.1336 56.5227 19.8578C57.6875 12.5359 56.4117 7.37734 52.8617 5.38047C51.8078 4.77031 50.643 4.49297 49.3117 4.49297C45.4289 4.49297 40.4922 7.37734 35.5 12.2031C30.5078 7.37734 25.5711 4.49297 21.6883 4.49297C20.357 4.49297 19.1922 4.77031 18.1383 5.38047C14.5883 7.43281 13.3125 12.5914 14.4773 19.8578C14.6992 21.1336 14.9766 22.4648 15.3094 23.7961C13.9781 24.1844 12.7023 24.5727 11.482 25.0719C4.54844 27.7344 0.776566 31.3953 0.776566 35.5C0.776566 39.6047 4.60391 43.2656 11.482 45.9281C12.7023 46.3719 13.9781 46.8156 15.3094 47.2039C14.9766 48.5352 14.6992 49.8664 14.4773 51.1422C13.3125 58.4641 14.5883 63.6227 18.1383 65.6195C19.1922 66.2297 20.357 66.507 21.6883 66.507C25.6266 66.507 30.5633 63.6227 35.5 58.7969C40.4922 63.6227 45.4289 66.507 49.3117 66.507C50.643 66.507 51.8078 66.2297 52.8617 65.6195C56.4117 63.5672 57.6875 58.4086 56.5227 51.1422C56.3008 49.8664 56.0234 48.5352 55.6906 47.2039C57.0219 46.8156 58.2977 46.4273 59.518 45.9281C66.4516 43.2656 70.2234 39.6047 70.2234 35.5C70.2234 31.3953 66.4516 27.7344 59.518 25.0719ZM51.3086 8.1539C53.5828 9.48515 54.3594 13.5898 53.4164 19.4141C53.25 20.5789 52.9727 21.7992 52.6398 23.075C49.7555 22.4094 46.7047 21.9656 43.4875 21.6883C41.6016 19.0258 39.6602 16.6406 37.7188 14.4773C41.8234 10.4281 45.9836 7.65468 49.3672 7.65468C50.0883 7.65468 50.7539 7.82109 51.3086 8.1539ZM45.0961 41.0469C44.0977 42.8219 42.9328 44.5969 41.7125 46.3719C39.6602 46.5383 37.6078 46.5937 35.5 46.5937C33.3367 46.5937 31.2844 46.5383 29.2875 46.3719C28.0672 44.5969 26.9578 42.8219 25.9594 41.0469C24.9055 39.2164 23.907 37.3305 23.0195 35.5C23.907 33.6695 24.9055 31.7836 25.9594 29.9531C26.9578 28.1781 28.1227 26.4031 29.343 24.6281C31.3953 24.4617 33.4477 24.4062 35.5555 24.4062C37.7188 24.4062 39.7711 24.4617 41.768 24.6281C42.9883 26.4031 44.0977 28.1781 45.0961 29.9531C46.15 31.7836 47.1484 33.6695 48.0359 35.5C47.093 37.3305 46.15 39.1609 45.0961 41.0469ZM49.7 39.2164C50.532 41.1578 51.1977 43.0437 51.8078 44.9297C49.9219 45.3734 47.925 45.7062 45.8172 45.9836C46.4828 44.9297 47.2039 43.8203 47.8141 42.6555C48.4797 41.4906 49.0898 40.3258 49.7 39.2164ZM35.5 54.2484C34.1688 52.8062 32.893 51.2531 31.6727 49.6445C32.9484 49.7 34.2242 49.7555 35.5 49.7555C36.7758 49.7555 38.0516 49.7 39.3273 49.6445C38.107 51.2531 36.8313 52.8062 35.5 54.2484ZM25.1828 45.9281C23.075 45.6508 21.0781 45.318 19.1922 44.8742C19.8023 43.0437 20.468 41.1023 21.3 39.1609C21.9102 40.2703 22.5203 41.4352 23.1859 42.5445C23.8516 43.7648 24.5172 44.8187 25.1828 45.9281ZM21.3 31.7836C20.468 29.8422 19.8023 27.9562 19.1922 26.0703C21.0781 25.6266 23.075 25.2937 25.1828 25.0164C24.5172 26.0703 23.7961 27.1797 23.1859 28.3445C22.5203 29.5094 21.9102 30.6742 21.3 31.7836ZM35.5 16.7516C36.8313 18.1937 38.107 19.7469 39.3273 21.3555C38.0516 21.3 36.7758 21.2445 35.5 21.2445C34.2242 21.2445 32.9484 21.3 31.6727 21.3555C32.893 19.7469 34.1688 18.1937 35.5 16.7516ZM47.8141 28.4L45.8172 25.0719C47.925 25.3492 49.9219 25.682 51.8078 26.1258C51.1977 27.9562 50.532 29.8977 49.7 31.8391C49.0898 30.6742 48.4797 29.5094 47.8141 28.4ZM17.5836 19.4141C16.6406 13.5898 17.4172 9.48515 19.6914 8.1539C20.2461 7.82109 20.9117 7.65468 21.6328 7.65468C24.9609 7.65468 29.1211 10.3727 33.2813 14.4773C31.3398 16.5852 29.3984 19.0258 27.5125 21.6883C24.2953 21.9656 21.2445 22.4648 18.3602 23.075C18.0273 21.7992 17.8055 20.5789 17.5836 19.4141ZM3.88282 35.5C3.88282 32.893 7.04454 30.1195 12.5914 28.0672C13.7008 27.6234 14.9211 27.2352 16.1414 26.9023C17.0289 29.6758 18.1383 32.6156 19.4695 35.5555C18.1383 38.4953 16.9734 41.3797 16.1414 44.1531C8.48672 41.9344 3.88282 38.6062 3.88282 35.5ZM19.6914 62.8461C17.4172 61.5148 16.6406 57.4102 17.5836 51.5859C17.75 50.4211 18.0273 49.2008 18.3602 47.925C21.2445 48.5906 24.2953 49.0344 27.5125 49.3117C29.3984 51.9742 31.3398 54.3594 33.2813 56.5227C29.1766 60.5719 25.0164 63.3453 21.6328 63.3453C20.9117 63.3453 20.2461 63.1789 19.6914 62.8461ZM53.4164 51.5859C54.3594 57.4102 53.5828 61.5148 51.3086 62.8461C50.7539 63.1789 50.0883 63.3453 49.3672 63.3453C46.0391 63.3453 41.8789 60.6273 37.7188 56.5227C39.6602 54.4148 41.6016 51.9742 43.4875 49.3117C46.7047 49.0344 49.7555 48.5352 52.6398 47.925C52.9727 49.2008 53.1945 50.4211 53.4164 51.5859ZM58.4086 42.9328C57.2992 43.3766 56.0789 43.7648 54.8586 44.0977C53.9711 41.3242 52.8617 38.3844 51.5305 35.4445C52.8617 32.5047 54.0266 29.6203 54.8586 26.8469C62.5133 29.0656 67.1172 32.3937 67.1172 35.5C67.1172 38.107 63.9 40.8805 58.4086 42.9328Z" fill="#61DAFB"/>
<rect x="1" y="1" width="69" height="69" rx="9" stroke="black" stroke-width="2"/>
</svg>
