<svg width="52" height="48" viewBox="0 0 52 48" fill="none" xmlns="http://www.w3.org/2000/svg">
<path d="M15.0509 28.3382L22.4792 25.8713L19.4371 17.8751L12.0088 20.342C12.902 22.6388 14.1577 26.0414 15.0509 28.3382Z" fill="black"/>
<path d="M21.135 19.2362L44.3043 11.4102L43.3227 8.68806L20.1534 16.429C21.2234 19.3212 21.135 19.1511 21.135 19.2362Z" fill="black"/>
<path d="M29.6334 6.47637C30.8891 6.47637 31.8707 5.54065 31.8707 4.34973C31.8707 3.15882 30.8891 2.2231 29.6334 2.2231C28.3776 2.2231 27.396 3.15882 27.396 4.34973C27.396 5.54065 28.4661 6.47637 29.6334 6.47637Z" fill="black"/>
<path d="M40.82 34.1226C40.82 34.7181 41.3595 35.2285 41.9873 35.2285C42.6152 35.2285 43.1458 34.7181 43.1458 34.1226C43.1458 33.5272 42.6064 33.0168 41.9873 33.0168C41.3683 33.0168 40.82 33.5272 40.82 34.1226Z" fill="black"/>
<path d="M8.96675 10.7296C9.85991 10.7296 10.6646 10.0491 10.6646 9.11339C10.6646 8.17767 9.94835 7.49715 8.96675 7.49715C8.07358 7.49715 7.26884 8.17767 7.26884 9.11339C7.26884 10.0491 8.07358 10.7296 8.96675 10.7296Z" fill="black"/>
<path d="M51.9094 19.9167L46.2763 4.77506C46.011 4.00947 45.109 3.58415 44.3043 3.83934C43.4995 4.09454 43.0485 4.94519 43.3227 5.71078L44.039 7.66729C44.1274 7.75235 44.1274 7.83742 44.1274 7.92248L48.2395 18.7258C48.3279 18.8109 48.3279 18.8959 48.3279 18.981L49.0442 20.8524C49.3095 21.618 50.2115 22.0433 51.0163 21.7881C51.821 21.4479 52.1836 20.6823 51.9094 19.9167Z" fill="black"/>
<path d="M44.7553 12.431L21.586 20.257C21.586 20.342 22.1255 21.7882 23.9118 26.4667C24.8934 26.1265 46.0995 19.0661 47.0811 18.7258L44.7553 12.431Z" fill="black"/>
<path d="M27.4845 26.4667L23.7261 27.7427C23.4608 27.8278 23.0982 27.6577 23.0098 27.4025L22.8329 26.8921L19.7908 27.9128C20.0561 29.6992 21.7629 31.0603 23.6377 31.0603C26.1403 30.9752 28.0239 28.8486 27.4845 26.4667Z" fill="black"/>
<path d="M47.6116 43.65H36.4249C36.1597 43.65 35.8855 43.9052 35.8855 44.1604C35.8855 44.4156 36.1508 44.6707 36.4249 44.6707H47.6116C47.8769 44.6707 48.1511 44.4156 48.1511 44.1604C48.1511 43.9052 47.8858 43.65 47.6116 43.65Z" fill="black"/>
<path d="M15.6788 1.62764C16.3243 1.62764 16.8461 2.12102 16.8461 2.73349C16.8461 3.34596 16.3243 3.83934 15.6788 3.83934C15.0332 3.83934 14.5203 3.34596 14.5203 2.73349C14.5203 2.12102 15.042 1.62764 15.6788 1.62764Z" fill="black"/>
<path d="M39.2106 0.521805C39.8561 0.521805 40.369 1.01518 40.369 1.62765C40.369 2.24013 39.8473 2.73351 39.2106 2.73351C38.5738 2.73351 38.0433 2.24013 38.0433 1.62765C38.0433 1.01518 38.565 0.521805 39.2106 0.521805Z" fill="black"/>
<path d="M48.1511 28.1681C48.7966 28.1681 49.3184 28.6614 49.3184 29.2739C49.3184 29.8864 48.7966 30.3798 48.1511 30.3798C47.5055 30.3798 46.9926 29.8864 46.9926 29.2739C46.9926 28.6614 47.5144 28.1681 48.1511 28.1681Z" fill="black"/>
<path d="M33.5686 33.5272C34.2142 33.5272 34.7271 34.0206 34.7271 34.633C34.7271 35.2455 34.2053 35.7389 33.5686 35.7389C32.9319 35.7389 32.4013 35.2455 32.4013 34.633C32.4013 34.0206 32.9231 33.5272 33.5686 33.5272Z" fill="black"/>
<path d="M8.96675 35.6538C9.6123 35.6538 10.1341 36.1472 10.1341 36.7597C10.1341 37.3721 9.6123 37.8655 8.96675 37.8655C8.32119 37.8655 7.80829 37.3721 7.80829 36.7597C7.80829 36.1472 8.33004 35.6538 8.96675 35.6538Z" fill="black"/>
<path d="M50.3884 43.0545C51.034 43.0545 51.5557 43.5479 51.5557 44.1604C51.5557 44.7728 51.034 45.2662 50.3884 45.2662C49.7429 45.2662 49.2211 44.7728 49.2211 44.1604C49.2211 43.5479 49.7429 43.0545 50.3884 43.0545Z" fill="black"/>
<path d="M24.1771 33.6122V46.287H31.3313L24.1771 33.6122Z" fill="black"/>
<path d="M23.1071 46.287V33.6122L15.944 46.287H23.1071Z" fill="black"/>
<path d="M6.55254 27.7427L7.26884 29.7843L13.6183 27.6577L11.3809 21.618L5.0315 23.8297L5.92468 26.2115C6.64098 26.3817 6.9947 27.1473 6.55254 27.7427Z" fill="black"/>
<path d="M6.11036 26.9771C6.02193 26.7219 5.65936 26.5518 5.39406 26.6369L2.52887 27.5726L1.09627 23.9998C1.00784 23.7446 0.645267 23.5745 0.37997 23.6596C0.114673 23.7446 -0.0710563 24.0849 0.0262191 24.3401L1.63569 28.4232C1.72412 28.6784 2.08669 28.8486 2.35199 28.7635L5.74779 27.6577C6.11036 27.5726 6.28723 27.3174 6.11036 26.9771Z" fill="black"/>
<path d="M37.5038 46.8824H4.67778C4.41248 46.8824 4.13836 47.1376 4.13836 47.3928C4.13836 47.648 4.40364 47.9032 4.67778 47.9032H37.5038C37.7691 47.9032 38.0433 47.648 38.0433 47.3928C38.0433 47.0526 37.8664 46.8824 37.5038 46.8824Z" fill="black"/>
</svg>
