<svg width="19" height="16" viewBox="0 0 19 16" fill="none" xmlns="http://www.w3.org/2000/svg">
<path fill-rule="evenodd" clip-rule="evenodd" d="M8.88639 0.955684C12.113 0.762569 14.9698 2.7774 16 5.69639L15.9977 5.69653C14.6922 7.0781 12.7854 8.64943 10.6297 10.0795C8.48533 11.5018 6.32873 12.641 4.51194 13.3151C3.20481 12.1089 2.34203 10.4123 2.22734 8.49595C2.2073 8.16124 2.21118 7.83219 2.23647 7.50659L10.4369 7.01579C10.6013 7.00595 10.7249 6.86608 10.715 6.70108C10.7051 6.53608 10.5657 6.41195 10.4014 6.42179L2.31129 6.90598C2.40795 6.31589 2.57897 5.74738 2.81094 5.21306L8.1957 4.89079C8.36009 4.88095 8.48356 4.73872 8.47382 4.57608C8.46409 4.41343 8.32454 4.28694 8.16015 4.29678L3.11591 4.59868C4.25875 2.54792 6.38305 1.10551 8.88639 0.955684ZM0.900045 13.6472C1.12815 13.9931 2.03194 14.1307 3.88626 13.5324C3.15661 12.8001 2.56909 11.9222 2.17552 10.938C0.901413 12.4099 0.669455 13.2991 0.900045 13.6472ZM16.4245 2.43249C16.4201 2.35942 16.4206 2.28843 16.4258 2.21715C15.955 2.26661 15.3809 2.40033 14.7382 2.60912C15.4678 3.34136 16.0554 4.21932 16.4464 5.20129C16.8851 4.69482 17.2316 4.22225 17.4655 3.79901C16.8905 3.60396 16.4607 3.07614 16.422 2.43028L16.4245 2.43249ZM10.1238 11.1175L10.1262 11.1174C10.1361 11.2824 10.2755 11.4065 10.4398 11.3967L15.7448 11.0792C15.4525 11.7093 15.0678 12.2906 14.6109 12.8077L8.69309 13.1619C8.5287 13.1717 8.40509 13.3116 8.41497 13.4766C8.42484 13.6416 8.56425 13.7657 8.72864 13.7559L13.9725 13.442C12.8304 14.4424 11.3653 15.086 9.74027 15.1833C7.96961 15.2893 6.31004 14.7309 5.00301 13.7234C6.55988 13.1168 8.33381 12.1993 10.1257 11.0701C10.1219 11.0845 10.1229 11.1011 10.1238 11.1175ZM17.9014 1.3955C17.3824 1.42657 16.9875 1.87601 17.0186 2.39694C17.0498 2.91787 17.4978 3.3145 18.0144 3.28358C18.5311 3.25266 18.9285 2.80543 18.8973 2.2845C18.8661 1.76357 18.4204 1.36444 17.9014 1.3955ZM10.5593 10.7934L10.9403 10.5435C13.0348 9.15494 14.8687 7.66368 16.1876 6.30969C16.2958 6.74084 16.3673 7.18603 16.3948 7.64567C16.454 8.63567 16.3084 9.58827 15.9957 10.4681L10.5593 10.7934Z" fill="white"/>
</svg>
